<?xml version="1.0" encoding="UTF-8"?>
<!-- Created with Inkscape (http://www.inkscape.org/) -->
<svg width="20" height="20" version="1.1" viewBox="0 0 20 20" xml:space="preserve" xmlns="http://www.w3.org/2000/svg" xmlns:cc="http://creativecommons.org/ns#" xmlns:dc="http://purl.org/dc/elements/1.1/" xmlns:rdf="http://www.w3.org/1999/02/22-rdf-syntax-ns#"><metadata><rdf:RDF><cc:Work rdf:about=""><dc:format>image/svg+xml</dc:format><dc:type rdf:resource="http://purl.org/dc/dcmitype/StillImage"/><dc:title/></cc:Work></rdf:RDF></metadata><defs><clipPath id="clipPath18"><path d="M 0,170.05 H 170.05 V 0 H 0 Z"/></clipPath></defs><g transform="matrix(1.3333 0 0 -1.3333 0 20)"><g transform="matrix(.089559 0 0 .089559 -.11481 -.11477)"><g clip-path="url(#clipPath18)"><g transform="translate(134.56 94.528)"><path d="m0 0c-26.994 16.031-71.52 17.505-97.289 9.684-4.139-1.256-8.515 1.08-9.768 5.218-1.254 4.141 1.079 8.514 5.22 9.772 29.582 8.979 78.756 7.245 109.83-11.202 3.723-2.21 4.943-7.017 2.737-10.733-2.208-3.722-7.019-4.949-10.732-2.739m-0.884-23.744c-1.894-3.073-5.912-4.037-8.981-2.15-22.504 13.833-56.822 17.841-83.447 9.759-3.452-1.043-7.099 0.903-8.148 4.35-1.04 3.452 0.907 7.092 4.354 8.142 30.415 9.23 68.226 4.76 94.074-11.125 3.069-1.89 4.035-5.91 2.148-8.976m-10.247-22.803c-1.505-2.468-4.718-3.241-7.177-1.737-19.665 12.019-44.417 14.733-73.567 8.075-2.809-0.644-5.609 1.116-6.249 3.924-0.644 2.809 1.11 5.609 3.925 6.25 31.9 7.292 59.263 4.154 81.336-9.334 2.461-1.503 3.236-4.718 1.732-7.178m-38.406 120.79c-46.249 0-83.743-37.493-83.743-83.742 0-46.254 37.494-83.745 83.743-83.745 46.251 0 83.744 37.491 83.744 83.745 0 46.249-37.493 83.742-83.744 83.742" fill="#191414"/></g></g></g></g></svg>
